<?xml version="1.0" encoding="UTF-8"?><svg id="Layer_1" xmlns="http://www.w3.org/2000/svg" xmlns:xlink="http://www.w3.org/1999/xlink" viewBox="0 0 200 116.75"><defs><style>.cls-1,.cls-2{fill:#fff;}.cls-2{filter:url(#drop-shadow-5);opacity:.3;}</style><filter id="drop-shadow-5" filterUnits="userSpaceOnUse"><feOffset dx="3" dy="3"/><feGaussianBlur result="blur" stdDeviation="2"/><feFlood flood-color="#000" flood-opacity=".3"/><feComposite in2="blur" operator="in"/><feComposite in="SourceGraphic"/></filter></defs><ellipse class="cls-2" cx="100" cy="58.37" rx="94.9" ry="49.33"/><path class="cls-1" d="m44.24,68.51c0-3.21.02-6.41-.02-9.62,0-.67.36-1.11,1.16-1.55,5.07-2.77,10.09-5.59,15.13-8.38,7.39-4.1,14.77-8.21,22.16-12.31,5.45-3.03,10.91-6.04,16.34-9.08.68-.38,1.1-.4,1.8-.01,5.9,3.31,11.84,6.58,17.77,9.87,5.89,3.27,11.79,6.54,17.67,9.81,5.17,2.88,10.33,5.76,15.5,8.64.88.49,1.72,1.03,2.68,1.45,1.03.46,1.4,1.02,1.4,1.83-.04,6.24-.02,12.48-.03,18.72,0,.33.24.78-.32.96-.67.21-1.01-.26-1.43-.49-6-3.32-11.98-6.65-17.97-9.98-4.39-2.44-8.77-4.89-13.16-7.33-6.46-3.59-12.93-7.19-19.4-10.78-.99-.55-1.99-1.09-2.95-1.65-.45-.26-.78-.29-1.27-.02-3.97,2.22-7.97,4.42-11.95,6.63-5.18,2.87-10.35,5.75-15.52,8.62-5.17,2.88-10.35,5.75-15.51,8.63-3.67,2.05-7.33,4.1-10.99,6.15-.26.15-.54.37-.94.22-.34-.12-.17-.36-.17-.55,0-3.26,0-6.53,0-9.79,0,0,.02,0,.03,0Z"/></svg>