<?xml version="1.0" encoding="UTF-8"?><svg id="Layer_1" xmlns="http://www.w3.org/2000/svg" xmlns:xlink="http://www.w3.org/1999/xlink" viewBox="0 0 200 116.75"><defs><style>.cls-1{fill:#fff;}.cls-2{fill:none;filter:url(#drop-shadow-5);stroke:#fff;stroke-miterlimit:10;stroke-width:9px;}</style><filter id="drop-shadow-5" filterUnits="userSpaceOnUse"><feOffset dx="0" dy="2"/><feGaussianBlur result="blur" stdDeviation="1"/><feFlood flood-color="#000" flood-opacity=".15"/><feComposite in2="blur" operator="in"/><feComposite in="SourceGraphic"/></filter></defs><ellipse class="cls-2" cx="100" cy="58.37" rx="91.78" ry="47.71"/><path class="cls-1" d="m46.07,68.17c0-3.1.02-6.2-.02-9.3,0-.65.35-1.07,1.12-1.5,4.9-2.68,9.76-5.4,14.63-8.11,7.14-3.97,14.28-7.94,21.43-11.91,5.27-2.93,10.55-5.84,15.8-8.78.66-.37,1.06-.39,1.74-.01,5.71,3.2,11.45,6.37,17.18,9.55,5.7,3.16,11.4,6.32,17.09,9.49,5,2.78,9.99,5.57,14.99,8.36.85.48,1.67.99,2.59,1.41,1,.45,1.36.99,1.35,1.77-.04,6.03-.02,12.07-.03,18.1,0,.32.23.75-.31.93-.64.21-.98-.25-1.38-.47-5.8-3.21-11.59-6.43-17.38-9.66-4.24-2.36-8.48-4.73-12.73-7.09-6.25-3.48-12.51-6.95-18.76-10.42-.95-.53-1.93-1.05-2.86-1.6-.43-.25-.76-.28-1.22-.02-3.84,2.15-7.71,4.28-11.56,6.42-5.01,2.78-10.01,5.56-15.01,8.34-5,2.78-10.01,5.56-15,8.35-3.55,1.98-7.09,3.97-10.63,5.95-.25.14-.52.35-.91.22-.33-.12-.16-.35-.16-.54,0-3.16,0-6.31,0-9.47,0,0,.02,0,.02,0ZM100,10.66C49.31,10.66,8.22,32.03,8.22,58.37s41.09,47.71,91.78,47.71,91.78-21.36,91.78-47.71S150.69,10.66,100,10.66Z"/></svg>