<?xml version="1.0" encoding="UTF-8"?><svg id="Layer_3" xmlns="http://www.w3.org/2000/svg" viewBox="0 0 41.22 42.83"><defs><style>.cls-1{fill:#fff;}.cls-2{fill:none;stroke:#fff;stroke-miterlimit:10;stroke-width:3px;}</style></defs><circle class="cls-2" cx="20.61" cy="21.42" r="18.27"/><path class="cls-1" d="m38.88,21.42c0,10.09-8.18,18.27-18.27,18.27S2.34,31.51,2.34,21.42,10.52,3.14,20.61,3.14s18.27,8.18,18.27,18.27Zm-15.86,9.52v-12.86c0-.75-.61-1.36-1.36-1.36h-2.95c-.75,0-1.36.61-1.36,1.36v12.86c0,.75.61,1.36,1.36,1.36h2.95c.75,0,1.36-.61,1.36-1.36Zm-2.84-21.71c-1.57,0-2.84,1.27-2.84,2.84s1.27,2.84,2.84,2.84,2.84-1.27,2.84-2.84-1.27-2.84-2.84-2.84Z"/></svg>